<svg width="16" height="20" viewBox="0 0 16 20" fill="none" xmlns="http://www.w3.org/2000/svg">
<path d="M8.22203 8.88889C9.10106 8.88889 9.96035 8.62823 10.6912 8.13986C11.4221 7.6515 11.9918 6.95738 12.3282 6.14526C12.6646 5.33314 12.7526 4.43952 12.5811 3.57738C12.4096 2.71524 11.9863 1.92332 11.3647 1.30175C10.7432 0.680182 9.95124 0.256891 9.0891 0.0854007C8.22696 -0.0860891 7.33333 0.00192569 6.52122 0.338315C5.7091 0.674704 5.01497 1.24436 4.52661 1.97524C4.03825 2.70613 3.77759 3.56542 3.77759 4.44445C3.77759 5.62319 4.24584 6.75365 5.07933 7.58714C5.91283 8.42064 7.04329 8.88889 8.22203 8.88889ZM8.22203 2.22222C8.66154 2.22222 9.09119 2.35255 9.45663 2.59674C9.82207 2.84092 10.1069 3.18798 10.2751 3.59404C10.4433 4.0001 10.4873 4.44691 10.4016 4.87798C10.3158 5.30905 10.1042 5.70501 9.79338 6.01579C9.4826 6.32658 9.08663 6.53822 8.65556 6.62397C8.2245 6.70971 7.77768 6.66571 7.37162 6.49751C6.96557 6.32932 6.6185 6.04449 6.37432 5.67905C6.13014 5.3136 5.99981 4.88396 5.99981 4.44445C5.99981 3.85508 6.23394 3.28984 6.65068 2.8731C7.06743 2.45635 7.63266 2.22222 8.22203 2.22222Z" fill="#4B555F"/>
<path d="M8.22211 11.1111C6.15932 11.1111 4.18101 11.9305 2.72239 13.3891C1.26378 14.8478 0.444336 16.8261 0.444336 18.8889C0.444336 19.1835 0.561399 19.4662 0.769773 19.6745C0.978147 19.8829 1.26076 20 1.55545 20C1.85013 20 2.13275 19.8829 2.34112 19.6745C2.54949 19.4662 2.66656 19.1835 2.66656 18.8889C2.66656 17.4154 3.25187 16.0024 4.29374 14.9605C5.33561 13.9186 6.74869 13.3333 8.22211 13.3333C9.69554 13.3333 11.1086 13.9186 12.1505 14.9605C13.1924 16.0024 13.7777 17.4154 13.7777 18.8889C13.7777 19.1835 13.8947 19.4662 14.1031 19.6745C14.3115 19.8829 14.5941 20 14.8888 20C15.1835 20 15.4661 19.8829 15.6745 19.6745C15.8828 19.4662 15.9999 19.1835 15.9999 18.8889C15.9999 16.8261 15.1804 14.8478 13.7218 13.3891C12.2632 11.9305 10.2849 11.1111 8.22211 11.1111Z" fill="#4B555F"/>
</svg>
