<svg width="20" height="20" viewBox="0 0 20 20" fill="none" xmlns="http://www.w3.org/2000/svg">
<path d="M19.7057 5.24287C19.5273 4.93367 19.2717 4.67601 18.964 4.495C18.6563 4.31399 18.3069 4.21583 17.95 4.21008H4.73021L4.13118 1.87596C4.07066 1.65064 3.93564 1.45245 3.7481 1.31368C3.56056 1.1749 3.33155 1.1037 3.09839 1.11169H1.0328C0.758881 1.11169 0.496186 1.2205 0.302499 1.41419C0.108812 1.60788 0 1.87057 0 2.14449C0 2.4184 0.108812 2.6811 0.302499 2.87478C0.496186 3.06847 0.758881 3.17728 1.0328 3.17728H2.31346L5.16398 13.7738C5.2245 13.9991 5.35953 14.1973 5.54707 14.3361C5.73461 14.4748 5.96361 14.546 6.19678 14.538H15.4919C15.6827 14.5375 15.8695 14.4841 16.0317 14.3838C16.194 14.2836 16.3253 14.1403 16.4111 13.97L19.7987 7.19486C19.9455 6.8871 20.0139 6.54778 19.9977 6.20718C19.9814 5.86658 19.8812 5.53529 19.7057 5.24287ZM14.8516 12.4724H6.9817L5.29824 6.27567H17.95L14.8516 12.4724Z" fill="#4B555F"/>
<path d="M5.6803 19.7021C6.53589 19.7021 7.22949 19.0085 7.22949 18.1529C7.22949 17.2973 6.53589 16.6037 5.6803 16.6037C4.8247 16.6037 4.1311 17.2973 4.1311 18.1529C4.1311 19.0085 4.8247 19.7021 5.6803 19.7021Z" fill="#4B555F"/>
<path d="M16.0082 19.7021C16.8638 19.7021 17.5574 19.0085 17.5574 18.1529C17.5574 17.2973 16.8638 16.6037 16.0082 16.6037C15.1526 16.6037 14.459 17.2973 14.459 18.1529C14.459 19.0085 15.1526 19.7021 16.0082 19.7021Z" fill="#4B555F"/>
</svg>
